<?xml version="1.0" encoding="UTF-8" standalone="no"?>
<!-- Created with Inkscape (http://www.inkscape.org/) -->
<svg xmlns:dc="http://purl.org/dc/elements/1.1/" xmlns:cc="http://creativecommons.org/ns#" xmlns:rdf="http://www.w3.org/1999/02/22-rdf-syntax-ns#" xmlns:svg="http://www.w3.org/2000/svg" xmlns="http://www.w3.org/2000/svg" xmlns:xlink="http://www.w3.org/1999/xlink" xmlns:sodipodi="http://sodipodi.sourceforge.net/DTD/sodipodi-0.dtd" xmlns:inkscape="http://www.inkscape.org/namespaces/inkscape" version="1.2" width="300" height="300" id="svg2455" inkscape:version="0.47 r22583" sodipodi:docname="logo_design_design.svg" inkscape:export-filename="/home/harry/hotlogo/Logo_design_design.png" inkscape:export-xdpi="120.95238" inkscape:export-ydpi="120.95238">
  <sodipodi:namedview pagecolor="#ffffff" bordercolor="#666666" borderopacity="1" objecttolerance="10" gridtolerance="10" guidetolerance="10" inkscape:pageopacity="1" inkscape:pageshadow="2" inkscape:window-width="1280" inkscape:window-height="702" id="namedview4422" showgrid="false" inkscape:zoom="0.61458333" inkscape:cx="31.455904" inkscape:cy="221.55673" inkscape:window-x="0" inkscape:window-y="24" inkscape:window-maximized="1" inkscape:current-layer="svg2455"/>
  <defs id="defs3">
    <inkscape:perspective sodipodi:type="inkscape:persp3d" inkscape:vp_x="0 : 24 : 1" inkscape:vp_y="0 : 1000 : 0" inkscape:vp_z="48 : 24 : 1" inkscape:persp3d-origin="24 : 16 : 1" id="perspective4424"/>
    <linearGradient id="linearGradient2419">
      <stop id="stop2420" style="stop-color:#000000;stop-opacity:0.50515461" offset="0"/>
      <stop id="stop2421" style="stop-color:#000000;stop-opacity:0" offset="1"/>
    </linearGradient>
    <linearGradient x1="156.33752" y1="184.92068" x2="264.56921" y2="184.92068" id="linearGradient2422" xlink:href="#linearGradient2419" gradientUnits="userSpaceOnUse" gradientTransform="scale(1.19593,0.836169)"/>
    <linearGradient id="linearGradient2411">
      <stop id="stop2412" style="stop-color:#ffffff;stop-opacity:1" offset="0"/>
      <stop id="stop2413" style="stop-color:#ffffff;stop-opacity:0" offset="1"/>
    </linearGradient>
    <radialGradient cx="212.59842" cy="70.866119" r="35.433071" fx="212.59842" fy="70.866119" id="radialGradient2415" xlink:href="#linearGradient2411" gradientUnits="userSpaceOnUse"/>
    <linearGradient x1="414.13153" y1="240.14357" x2="302.99097" y2="240.80186" id="linearGradient1779" xlink:href="#linearGradient1767" gradientUnits="userSpaceOnUse" gradientTransform="scale(0.689104,1.45116)"/>
    <linearGradient id="linearGradient1767">
      <stop id="stop1768" style="stop-color:#3f3318;stop-opacity:1" offset="0"/>
      <stop id="stop1769" style="stop-color:#815f0e;stop-opacity:1" offset="1"/>
    </linearGradient>
    <linearGradient x1="299.37338" y1="252.27031" x2="411.72696" y2="252.27031" id="linearGradient1778" xlink:href="#linearGradient1767" gradientUnits="userSpaceOnUse" gradientTransform="matrix(0.697599,0,0,1.47183,0,-11.82638)"/>
    <linearGradient id="linearGradient1754">
      <stop id="stop1755" style="stop-color:#747474;stop-opacity:1" offset="0"/>
      <stop id="stop1757" style="stop-color:#bebebe;stop-opacity:1" offset="0.5"/>
      <stop id="stop1759" style="stop-color:#d5d5d5;stop-opacity:1" offset="0.625"/>
      <stop id="stop1758" style="stop-color:#818181;stop-opacity:1" offset="0.75"/>
      <stop id="stop1756" style="stop-color:#c3c3c3;stop-opacity:1" offset="1"/>
    </linearGradient>
    <linearGradient x1="150.49463" y1="42.808048" x2="345.53265" y2="242.17987" id="linearGradient1777" xlink:href="#linearGradient1754" gradientUnits="userSpaceOnUse" gradientTransform="scale(1.000071,0.999929)"/>
    <pattern patternUnits="userSpaceOnUse" width="28.945312" height="33.076172" patternTransform="translate(190.4901,70.84341)" id="pattern2568">
      <text xml:space="preserve" style="font-size:12.000000;font-style:normal;font-weight:normal;fill:#000000;fill-opacity:1.0000000;stroke:none;stroke-width:1.0000000pt;stroke-linecap:butt;stroke-linejoin:miter;stroke-opacity:1.0000000;font-family:Bitstream Vera Sans" x="189.69904" y="67.749657" id="text2569" transform="translate(-190.4901,-70.84341)"><tspan id="tspan2570" x="189.69904" y="67.749657"/><tspan id="tspan2576" x="189.69904" y="79.749657">0010</tspan><tspan id="tspan2578" x="189.69904" y="91.749657">0100</tspan><tspan id="tspan2580" x="189.69904" y="103.74966">0111</tspan><tspan id="tspan2582" x="189.69904" y="115.74966"/></text>
    </pattern>
    <pattern patternUnits="userSpaceOnUse" width="32.232422" height="37.876175" patternTransform="translate(183.7668,59.46841)" id="pattern2606">
      <text xml:space="preserve" style="font-size:12.000000;font-style:normal;font-weight:bold;fill:#000000;fill-opacity:1.0000000;stroke:none;stroke-width:1.0000000pt;stroke-linecap:butt;stroke-linejoin:miter;stroke-opacity:1.0000000;font-family:Bitstream Vera Sans;font-stretch:normal;font-variant:normal;text-anchor:middle;writing-mode:lr;" x="189.69904" y="67.749657" id="text2607" transform="translate(-173.5858,-58.84341)"><tspan x="189.69904" y="67.749657" id="tspan2608">0010</tspan><tspan x="189.69904" y="82.149657" id="tspan2610">0100</tspan><tspan x="189.69904" y="96.549658" id="tspan2612">0111</tspan></text>
    </pattern>
    <pattern patternUnits="userSpaceOnUse" width="32.232422" height="28.276169" patternTransform="translate(183.7668,59.46841)" id="pattern2623">
      <text xml:space="preserve" style="font-size:12.000000;font-style:normal;font-variant:normal;font-weight:bold;font-stretch:normal;fill:#000000;fill-opacity:1.0000000;stroke:none;stroke-width:1.0000000pt;stroke-linecap:butt;stroke-linejoin:miter;stroke-opacity:1.0000000;font-family:Bitstream Vera Sans;text-anchor:middle;writing-mode:lr;" x="189.69904" y="67.749657" id="text2624" transform="translate(-173.5858,-58.84341)"><tspan x="189.69904" y="67.749657" id="tspan2625">0010</tspan><tspan x="189.69904" y="77.349657" id="tspan2627">0100</tspan><tspan x="189.69904" y="86.949657" id="tspan2629">0111</tspan></text>
    </pattern>
    <pattern patternUnits="userSpaceOnUse" width="32.232422" height="25.876175" patternTransform="translate(183.7668,59.46841)" id="pattern2639">
      <text xml:space="preserve" style="font-size:12.000000;font-style:normal;font-variant:normal;font-weight:bold;font-stretch:normal;fill:#000000;fill-opacity:1.0000000;stroke:none;stroke-width:1.0000000pt;stroke-linecap:butt;stroke-linejoin:miter;stroke-opacity:1.0000000;font-family:Bitstream Vera Sans;text-anchor:middle;writing-mode:lr;" x="189.69904" y="67.749657" id="text2640" transform="translate(-173.5858,-58.84341)"><tspan x="189.69904" y="67.749657" id="tspan2641">0010</tspan><tspan x="189.69904" y="76.149656" id="tspan2643">0100</tspan><tspan x="189.69904" y="84.549656" id="tspan2645">0111</tspan></text>
    </pattern>
    <pattern patternUnits="userSpaceOnUse" width="96.697266" height="77.628510" patternTransform="translate(151.5402,41.65591)" id="pattern2692">
      <text xml:space="preserve" style="font-size:36.000000;font-style:normal;font-variant:normal;font-weight:bold;font-stretch:normal;fill:#000000;fill-opacity:1.0000000;stroke:none;stroke-width:1.0000000pt;stroke-linecap:butt;stroke-linejoin:miter;stroke-opacity:1.0000000;font-family:Bitstream Vera Sans;text-anchor:middle;writing-mode:lr;" x="189.69904" y="67.749657" id="text2693" transform="translate(-141.3592,-41.03091)"><tspan x="189.69904" y="67.749657" id="tspan2694">0010</tspan><tspan x="189.69904" y="92.949656" id="tspan2696">0100</tspan><tspan x="189.69904" y="118.14965" id="tspan2698">0111</tspan></text>
    </pattern>
    <linearGradient x1="150.49463" y1="42.808048" x2="345.53265" y2="242.17987" id="linearGradient3789" xlink:href="#linearGradient1754" gradientUnits="userSpaceOnUse" gradientTransform="scale(1.000071,0.999929)"/>
    <linearGradient x1="299.37338" y1="252.27031" x2="411.72696" y2="252.27031" id="linearGradient3791" xlink:href="#linearGradient1767" gradientUnits="userSpaceOnUse" gradientTransform="matrix(0.697599,0,0,1.47183,0,-11.82638)"/>
    <linearGradient x1="414.13153" y1="240.14357" x2="302.99097" y2="240.80186" id="linearGradient3793" xlink:href="#linearGradient1767" gradientUnits="userSpaceOnUse" gradientTransform="scale(0.689104,1.45116)"/>
    <radialGradient cx="212.59842" cy="70.866119" r="35.433071" fx="212.59842" fy="70.866119" id="radialGradient3795" xlink:href="#linearGradient2411" gradientUnits="userSpaceOnUse"/>
    <linearGradient x1="156.33752" y1="184.92068" x2="264.56921" y2="184.92068" id="linearGradient3797" xlink:href="#linearGradient2419" gradientUnits="userSpaceOnUse" gradientTransform="scale(1.19593,0.836169)"/>
  </defs>
  <metadata id="metadata4">
    <rdf:RDF>
      <cc:Work rdf:about="">
        <dc:format>image/svg+xml</dc:format>
        <dc:type rdf:resource="http://purl.org/dc/dcmitype/StillImage"/>
        <dc:title/>
      </cc:Work>
    </rdf:RDF>
  </metadata>
  <g style="display:block" id="layer4" transform="matrix(0.08798405,0,0,0.08595212,3.1986333,250.92568)"/>
  <path style="fill:none;stroke:none;display:block" id="path2682" d="m 159.28764,136.35848 c 0,-1.08613 0,-2.17225 0,-3.25838 0,-4.68546 -0.85188,-5.09513 -5.46479,-5.09513 -7.12948,0 1.27609,8.35351 -7.54895,8.35351 -7.183,0 6.18358,-16.3433 -26.58544,3.13056 -6.56659,3.90234 -2.94524,-3.13056 0.98464,-3.13056 5.95537,0 5.9422,-8.35351 0.32825,-8.35351 -1.86441,0 3.95499,-2.0347 3.95499,-3.84931 0,-3.67338 14.00352,-7.98614 5.23504,-7.98614 -3.52901,0 -5.23504,6.2393 -5.23504,-1.91662 0,-3.82588 8.021,-7.52102 0,-8.30557 -1.02325,-0.0998 0,-2.0019 0,-3.00282 0,-1.709 -7.02381,0 -5.26786,0 4.81921,0 5.26786,-0.80092 5.26786,-5.30275 0,-2.56667 -14.11337,-6.49487 -5.26786,-7.34726 22.3459,-2.15334 6.10157,-12.410447 22.43352,-12.410447 5.49204,0 -8.58283,8.342967 -8.58283,13.688197 0,7.28605 8.58283,-1.60438 8.58283,7.02782 0,9.02941 13.2099,7.98613 22.20376,7.98613 1.18159,0 2.36316,0 3.54474,0 2.51631,0 0,-4.89817 0,-7.34725 0,-6.80196 22.34342,-11.18579 20.41499,-4.64795 -0.88955,3.01584 -8.39819,3.33082 -11.83216,4.32851 -6.1631,1.79061 19.35319,25.55558 4.61142,25.55558 -7.42121,0 -2.64499,-4.82363 -9.51825,-4.82363 -3.87568,0 13.48966,8.16741 13.48966,16.70702 0,5.18567 -11.96176,-3.22359 -17.16566,-4.21669 -2.19328,-0.4186 -2.95077,-4.13682 -5.18581,-4.13682 -10.7004,0 5.18581,14.40429 5.18581,16.70702 0,1.08606 2.23186,0 3.34779,0 2.5343,0 -11.93062,3.62234 -11.93062,-4.58407 0,-1.25648 0,-2.51296 0,-3.76944 z"/>
  <path style="fill:none;stroke:#000000;stroke-width:0.64302224;stroke-linecap:butt;stroke-linejoin:miter;stroke-miterlimit:4;stroke-opacity:1;stroke-dasharray:3.85813353, 3.85813353;stroke-dashoffset:0;display:block" id="path2683" d="m 95.400528,84.5445 -4.775531,10.0465 8.582825,4.00907 0,12.69795 -8.582825,11.57988 0,8.30557 17.165663,9.26389 -8.582838,7.98613 0,4.63194 8.582838,8.35351 8.58282,-8.35351 8.58284,8.35351 8.58283,19.91739 -8.58283,21.85002 3.92217,0 0.65643,11.37226"/>
  <path style="fill:none;stroke:#000000;stroke-width:0.64302224;stroke-linecap:butt;stroke-linejoin:miter;stroke-miterlimit:4;stroke-opacity:1;stroke-dasharray:2.57208902, 2.57208902;stroke-dashoffset:0;display:block" id="path1900" d="m 81.943699,212.32248 8.681298,-9.13613 8.582825,8.35351 17.165658,-8.35351 0,-8.35345 25.7485,8.35345 17.16566,0 0,-8.35345 -8.58283,-8.3535 8.58283,-16.70695 8.58284,-8.35351 8.58282,8.35351 0,8.35344 8.58284,0 8.58283,-8.35344 17.16566,0 5.39913,-5.04726"/>
  <path style="fill:none;stroke:#243eb4;stroke-width:0.54959166;stroke-linecap:butt;stroke-linejoin:miter;stroke-miterlimit:4;stroke-opacity:1;stroke-dasharray:4.39673338, 4.39673338;stroke-dashoffset:0;display:block" id="path2679" d="m 78.103586,161.41894 c 5.578255,0.22201 7.76908,11.57064 12.521411,13.52851 5.16556,2.12803 6.249428,3.17844 13.637343,3.17844 6.00703,0 0.60185,-5.09513 8.20538,-5.09513 3.68955,0 12.4886,-6.08526 12.4886,-11.61182 0,-1.5206 12.86522,1.62974 13.76863,3.62569 1.52608,3.37162 8.5336,2.38465 8.5336,7.98613 0,7.07117 -5.13657,3.63847 -5.13657,8.30557 0,6.12954 -2.94902,5.14307 -8.58283,5.14307 -2.34609,0 -2.08718,4.73643 -4.33245,5.39863 -7.83395,2.31048 4.90342,3.50774 7.54896,6.06944 1.36763,1.32432 7.91259,1.79316 9.51824,1.91669 4.50638,0.34666 5.25502,-1.1136 9.51824,-1.91669 9.27049,-1.74633 7.54896,-6.81319 7.54896,-14.69445 0,-4.49353 0,-8.98705 0,-13.48057 0,-1.19162 7.87732,8.35344 8.20538,8.35344 3.50142,0 8.78886,-4.37086 9.19003,-8.35344 0.21097,-2.09455 4.29963,-2.62323 4.29963,-4.72782 0,-0.21271 0,-0.42604 0,-0.63888 0,-7.58806 -3.15338,-19.69376 5.54682,-19.69376 3.73876,0 3.482,-8.35351 7.22074,-8.35351 2.87971,0 0.30834,-5.84917 -0.98464,-8.35351 -2.06796,-4.00528 -7.51578,-8.35351 1.64107,-8.35351 5.28242,0 5.12065,-8.35344 0.32825,-8.35344 -3.50097,0 -7.00193,0 -10.50289,0 -30.83988,0 -15.27015,-8.35351 -23.95973,-8.35351 -1.74744,0 -5.03809,-5.38362 -5.03809,-8.35351 0,-3.42798 17.16566,5.89903 17.16566,-8.35344 0,0 0,0 0,0"/>
  <g style="display:block" id="g1922" transform="matrix(0.48445312,0,0,0.47150798,64.876503,69.530545)">
    <path style="fill:none;stroke:#826d35;stroke-width:0.375;stroke-linecap:butt;stroke-linejoin:miter;stroke-miterlimit:4;stroke-opacity:1;stroke-dasharray:none" id="path1903" d="m 17.716535,159.4488 c -2.179709,-8.96404 18.450489,0 27.675733,0 16.055156,0 -0.744559,17.71653 15.58242,17.71653 9.202663,0 18.405326,0 27.607989,0 1.605012,0 -4.794742,-17.71653 8.299328,-17.71653 7.785065,0 6.325225,-35.43307 16.259915,-35.43307 3.55859,0 3.75283,-21.6988 4.06498,-25.101236 1.65221,-18.009074 24.52538,-25.224593 24.52538,-52.84473 0,-9.451083 0,-12.127201 0,-21.578284"/>
    <path style="fill:none;stroke:#826d35;stroke-width:0.375;stroke-linecap:butt;stroke-linejoin:miter;stroke-miterlimit:4;stroke-opacity:1;stroke-dasharray:none" id="path1904" d="m 25.067372,141.73226 c 0,-11.9691 23.938211,0 35.907316,0 24.506532,0 12.142116,-6.2167 27.607989,-10.97543 13.435033,-4.13385 -15.933839,-24.45764 7.621831,-24.45764 3.019274,0 -4.077039,-17.716533 10.094702,-17.716533 14.3968,0 0,-28.793593 0,-43.190389 0,-3.319739 0,-6.639478 0,-9.959217"/>
    <path style="fill:none;stroke:#826d35;stroke-width:0.375;stroke-linecap:butt;stroke-linejoin:miter;stroke-miterlimit:4;stroke-opacity:1;stroke-dasharray:none" id="path1905" d="m 177.16535,17.716515 c 0,8.999419 0,17.998838 0,26.998256 0,18.554655 -17.71653,-1.23663 -17.71653,15.582421 0,10.810024 -0.37523,17.11971 -8.36709,21.002392 -6.39627,3.107494 -11.33526,20.047716 -16.93742,24.999606 -11.35798,10.03961 -16.93741,-2.26797 -16.93741,17.71654 0,4.25743 6.80885,6.54865 6.80885,10.80608 0,23.62236 -17.71654,15.64959 -17.71654,33.87483 0,10.95103 -17.716533,6.81419 -17.716533,26.18523 0,6.43778 -11.394591,6.47384 -17.716535,7.68959 -1.151692,0.22148 -3.96652,10.02695 -17.716536,10.02695 -0.353925,0 2.887564,-17.71654 -9.789828,-17.71654 -6.048539,0 -15.496707,-10.15282 -16.937413,-17.71654 -0.0087,-0.0459 -1.890003,0 -2.03249,0"/>
    <path style="fill:none;stroke:#826d35;stroke-width:0.375;stroke-linecap:butt;stroke-linejoin:miter;stroke-miterlimit:4;stroke-opacity:1;stroke-dasharray:none" id="path1906" d="m 35.433071,248.03148 c -1.600682,-8.4036 14.078536,17.71653 24.864121,17.71653 13.817978,0 19.203367,2.60352 28.285485,-6.94433 2.976494,-3.12913 8.810138,-7.66194 11.009314,-10.7722 7.102729,-10.0453 6.707219,27.6757 6.707219,27.70961 0,5.6269 11.97278,15.22286 17.71654,16.93741 8.82025,2.63291 20.12878,-0.83017 28.42097,-1.35499 2.3327,-0.14764 4.67473,0 7.0121,0 3.28586,0 0,6.57171 0,9.85757"/>
    <path style="fill:none;stroke:#826d35;stroke-width:0.375;stroke-linecap:butt;stroke-linejoin:miter;stroke-miterlimit:4;stroke-opacity:1;stroke-dasharray:none" id="path1907" d="m 167.6804,301.18108 c 6.88789,0 13.77576,0 15.92116,0 9.79425,0 18.26209,-7.55319 28.99687,-10.53507 2.30649,-0.64069 0,-4.78764 0,-7.18146 0,-6.63571 17.71653,-2.44274 17.71653,-9.07845 0,-33.27417 13.19356,-18.52847 35.43307,-35.26371 9.05027,-6.81033 15.20896,7.58632 17.71654,-17.6149 0.21355,-2.1461 15.55983,8.80745 17.71653,8.80745 14.2745,0 -4.26498,-28.33992 -8.5026,-41.9709 -1.34421,-4.3239 7.56593,-10.16499 8.5026,-11.17871"/>
    <path style="fill:none;stroke:#826d35;stroke-width:0.375;stroke-linecap:butt;stroke-linejoin:miter;stroke-miterlimit:4;stroke-opacity:1;stroke-dasharray:none" id="path1908" d="m 212.59843,312.3259 c -1.60661,-5.16791 55.63952,-46.57789 63.82016,-46.57789 11.06577,0 22.13155,0 33.19733,0"/>
  </g>
  <path d="m 6.2509681,86.92059 110.1225219,32.73087 34.33133,-8.35344 34.33132,8.35344 111.5401,-29.655" id="path4605" style="opacity:0.32926827;fill:none;stroke:#000000;stroke-width:0.59427929;stroke-linecap:butt;stroke-linejoin:miter;stroke-miterlimit:4;stroke-opacity:1;stroke-dasharray:4.75423424, 4.75423424;stroke-dashoffset:0" sodipodi:nodetypes="ccccc"/>
  <path d="m 90.982636,7.886113 25.390854,111.765347 -8.58283,33.41397 8.58283,33.41397 -25.212413,94.16272" id="path4607" style="opacity:0.32926827;fill:none;stroke:#000000;stroke-width:0.59427929;stroke-linecap:butt;stroke-linejoin:miter;stroke-miterlimit:4;stroke-opacity:1;stroke-dasharray:4.75423424, 4.75423424;stroke-dashoffset:0" sodipodi:nodetypes="ccccc"/>
  <path d="m 132.36523,35.035166 18.26389,76.262854 -8.58283,33.41397 8.58283,33.4139 -16.89762,74.43912" id="path4609" style="opacity:0.32926827;fill:none;stroke:#000000;stroke-width:0.59427929;stroke-linecap:butt;stroke-linejoin:miter;stroke-miterlimit:4;stroke-opacity:1;stroke-dasharray:4.75423424, 4.75423424;stroke-dashoffset:0" sodipodi:nodetypes="ccccc"/>
  <path d="m 161.22907,11.436394 23.80707,108.215066 -8.58283,33.41397 8.58283,33.41397 -21.25299,88.64012" id="path4611" style="opacity:0.32926827;fill:none;stroke:#000000;stroke-width:0.59427929;stroke-linecap:butt;stroke-linejoin:miter;stroke-miterlimit:4;stroke-opacity:1;stroke-dasharray:4.75423424, 4.75423424;stroke-dashoffset:0" sodipodi:nodetypes="ccccc"/>
  <path d="m 0.6059259,123.1695 106.9549841,29.9696 34.33132,-8.35344 34.33133,8.35344 115.10358,-32.02179" id="path4613" style="opacity:0.32926827;fill:none;stroke:#000000;stroke-width:0.59427929;stroke-linecap:butt;stroke-linejoin:miter;stroke-miterlimit:4;stroke-opacity:1;stroke-dasharray:4.75423424, 4.75423424;stroke-dashoffset:0" sodipodi:nodetypes="ccccc"/>
  <path d="m 6.813103,159.58572 109.330637,26.8138 34.33132,-8.3535 34.33134,8.3535 76.30122,-19.3987" id="path4615" style="opacity:0.32926827;fill:none;stroke:#000000;stroke-width:0.59427929;stroke-linecap:butt;stroke-linejoin:miter;stroke-miterlimit:4;stroke-opacity:1;stroke-dasharray:4.75423424, 4.75423424;stroke-dashoffset:0" sodipodi:nodetypes="ccccc"/>
  <path d="m 74.53,77.597731 34.38055,8.081949 34.33133,-8.353512 34.33132,8.353512 34.33132,-8.353512 8.58283,33.413962 -8.58283,33.41397 8.58283,33.41397 -8.58283,33.4139 -34.33132,8.35351 -34.33132,-8.35351 -34.33133,8.35351 -34.331317,-8.35351 8.582826,-33.4139 L 74.579233,144.1541 83.162059,110.74013 74.53,77.597731 z" id="path4617" style="fill:none;stroke:#000000;stroke-width:0.54959166;stroke-linecap:butt;stroke-linejoin:miter;stroke-miterlimit:4;stroke-opacity:1;stroke-dasharray:4.39673338, 2.19836666;stroke-dashoffset:0"/>
  <path d="m 216.05482,90.93245 c -20.10046,-19.563354 -52.7257,-19.573773 -72.82616,-0.0124 -18.02786,17.54614 -19.83387,44.88161 -5.52378,64.45166 l -12.68543,12.34645 12.13947,11.8151 12.68544,-12.34645 c 20.10735,13.9277 48.19331,12.16996 66.22117,-5.37618 20.10046,-19.56335 20.08975,-51.31681 -0.0105,-70.88016 z m -6.06973,5.90758 c 16.75038,16.30274 16.76108,42.76225 0.0105,59.06506 -16.75038,16.3028 -43.94701,16.30274 -60.69739,0 -16.75039,-16.30281 -16.75039,-42.77274 0,-59.07554 16.75038,-16.30274 43.9363,-16.292384 60.68669,0.0124 z" id="path1736" style="fill:#ffffff;fill-opacity:1;stroke:#000000;stroke-width:0.791412;stroke-linecap:butt;stroke-linejoin:miter;stroke-miterlimit:3.9000001;stroke-opacity:1;stroke-dasharray:6.33129604, 6.33129604;stroke-dashoffset:0"/>
  <rect width="33.875755" height="75.361908" rx="9.5604916" ry="9.5604916" x="198.99635" y="31.656883" id="rect1762" style="fill:#ffffff;fill-opacity:1;stroke:#000000;stroke-width:0.89050174;stroke-linecap:butt;stroke-linejoin:round;stroke-miterlimit:4;stroke-opacity:1;stroke-dasharray:5.34301072, 5.34301072;stroke-dashoffset:0" transform="matrix(0.71661635,0.69746757,-0.71661635,0.69746757,0,0)"/>
  <path sodipodi:nodetypes="cc" style="opacity:0.32926827;fill:none;stroke:#000000;stroke-width:0.59427929;stroke-linecap:butt;stroke-linejoin:miter;stroke-miterlimit:4;stroke-opacity:1;stroke-dasharray:4.75423424, 4.75423424;stroke-dashoffset:0" id="path5650" d="m 211.9136,209.90986 -10.61399,49.03145"/>
  <path d="M 74.726549,220.50936 64.112556,269.5408" id="path5652" style="opacity:0.32926827;fill:none;stroke:#000000;stroke-width:0.59427929;stroke-linecap:butt;stroke-linejoin:miter;stroke-miterlimit:4;stroke-opacity:1;stroke-dasharray:4.75423424, 4.75423424;stroke-dashoffset:0" sodipodi:nodetypes="cc"/>
  <path sodipodi:nodetypes="cc" style="opacity:0.32926827;fill:none;stroke:#000000;stroke-width:0.6602658;stroke-linecap:butt;stroke-linejoin:miter;stroke-miterlimit:4;stroke-opacity:1;stroke-dasharray:5.28212625, 5.28212625;stroke-dashoffset:0" id="path5654" d="m 197.52702,22.499262 13.11965,48.965151"/>
  <path d="M 60.899908,24.172853 74.019563,73.138004" id="path5656" style="opacity:0.32926827;fill:none;stroke:#000000;stroke-width:0.6602658;stroke-linecap:butt;stroke-linejoin:miter;stroke-miterlimit:4;stroke-opacity:1;stroke-dasharray:5.28212625, 5.28212625;stroke-dashoffset:0" sodipodi:nodetypes="cc"/>
  <path sodipodi:nodetypes="cc" style="opacity:0.32926827;fill:none;stroke:#000000;stroke-width:0.6602658;stroke-linecap:butt;stroke-linejoin:miter;stroke-miterlimit:4;stroke-opacity:1;stroke-dasharray:5.28212625, 5.28212625;stroke-dashoffset:0" id="path5658" d="M 266.17712,63.876849 217.02949,76.947754"/>
  <path d="m 262.25749,197.76521 -49.14763,13.07097" id="path5660" style="opacity:0.32926827;fill:none;stroke:#000000;stroke-width:0.6602658;stroke-linecap:butt;stroke-linejoin:miter;stroke-miterlimit:4;stroke-opacity:1;stroke-dasharray:5.28212625, 5.28212625;stroke-dashoffset:0" sodipodi:nodetypes="cc"/>
  <path sodipodi:nodetypes="cc" style="opacity:0.32926827;fill:none;stroke:#000000;stroke-width:0.6602658;stroke-linecap:butt;stroke-linejoin:miter;stroke-miterlimit:4;stroke-opacity:1;stroke-dasharray:5.28212625, 5.28212625;stroke-dashoffset:0" id="path5662" d="m 24.967609,199.43886 49.147636,13.07091"/>
  <path d="M 25.527556,63.876849 74.675189,76.947754" id="path5664" style="opacity:0.32926827;fill:none;stroke:#000000;stroke-width:0.6602658;stroke-linecap:butt;stroke-linejoin:miter;stroke-miterlimit:4;stroke-opacity:1;stroke-dasharray:5.28212625, 5.28212625;stroke-dashoffset:0" sodipodi:nodetypes="cc"/>
</svg>